<svg xmlns="http://www.w3.org/2000/svg" viewBox="0 0 48.21 48.21">
  <defs>
    <style>.cls-1{fill:#fff;}</style>
  </defs>
  <g id="Capa_2" data-name="Capa 2">
    <g id="Capa_1-2" data-name="Capa 1">
      <path class="cls-1"
        d="M24.1,46A22.06,22.06,0,0,1,3.51,31.49,22.13,22.13,0,0,1,10.08,7.28,22,22,0,0,1,35.14,5.19,22.09,22.09,0,0,1,45.62,28.08,22.12,22.12,0,0,1,24.1,46a1.13,1.13,0,0,0,0,2.25A24.41,24.41,0,0,0,46.86,32.09,24.13,24.13,0,0,0,11.64,3.42,24.38,24.38,0,0,0,.45,28.85,24.36,24.36,0,0,0,24.1,48.21,1.13,1.13,0,0,0,24.1,46Z" />
      <path class="cls-1" d="M23,9V39a1.13,1.13,0,0,0,2.25,0V9A1.13,1.13,0,0,0,23,9Z" />
      <path class="cls-1"
        d="M38.43,23.28,25.2,36.52l-1.89,1.89H24.9L11.66,25.17,9.77,23.28a1.13,1.13,0,0,0-1.59,1.6L21.42,38.11,23.31,40a1.14,1.14,0,0,0,1.59,0L38.13,26.76,40,24.88a1.13,1.13,0,0,0-1.59-1.6Z" />
    </g>
  </g>
</svg>