<svg xmlns="http://www.w3.org/2000/svg" viewBox="0 0 179.47 123.9">
  <defs>
    <style>
      .cls-1{
        fill:#747d7f;
      }
    </style>
  </defs>
  <g id="Capa_2" data-name="Capa 2">
    <g id="Capa_1-2" data-name="Capa 1">
      <path class="cls-1"
        d="M88.05,94.46,32.1.8A1.63,1.63,0,0,0,29.1,2L40.29,55.23a1.6,1.6,0,0,0,.5.88L85.55,96.52A1.64,1.64,0,0,0,88.05,94.46Z" />
      <path class="cls-1"
        d="M42.93,122.69.48,60.56a2.74,2.74,0,0,1-.35-2.39L17.76,2.4a2.75,2.75,0,0,1,5.32.26L47.89,120.57A2.75,2.75,0,0,1,42.93,122.69Z" />
      <path class="cls-1"
        d="M91.42,94.46,147.37.8a1.63,1.63,0,0,1,3,1.18L139.18,55.23a1.6,1.6,0,0,1-.5.88L93.92,96.52A1.64,1.64,0,0,1,91.42,94.46Z" />
      <path class="cls-1"
        d="M136.54,122.69,179,60.56a2.74,2.74,0,0,0,.35-2.39L161.71,2.4a2.75,2.75,0,0,0-5.32.26L131.58,120.57A2.75,2.75,0,0,0,136.54,122.69Z" />
    </g>
  </g>
</svg>